<svg width="56" height="42" viewBox="0 0 56 42" fill="none" xmlns="http://www.w3.org/2000/svg">
<path d="M33.2788 28.8947C37.4073 28.8947 40.7541 25.4945 40.7541 21.3C40.7541 17.1056 37.4073 13.7053 33.2788 13.7053C29.1504 13.7053 25.8036 17.1056 25.8036 21.3C25.8036 25.4945 29.1504 28.8947 33.2788 28.8947Z" fill="#FF5C00"/>
<path d="M6.40122 30.324L6.25621 30.5859L0 41.9997H13.6885C10.4221 38.7174 7.93058 34.7254 6.40122 30.324Z" fill="#FF5C00"/>
<path d="M35.1799 41.8525C32.0789 41.8556 29.0139 41.1782 26.1945 39.8664C23.3751 38.5546 20.8679 36.6395 18.8444 34.2522C16.821 31.8648 15.329 29.0615 14.4706 26.0341C13.6123 23.0067 13.4078 19.8266 13.8711 16.7114L7.5719 28.1689C9.1072 33.531 12.1269 38.3319 16.2716 41.9998H56.0107L51.6555 34.0668C49.6349 36.5075 47.113 38.4692 44.2667 39.8142C41.4205 41.1592 38.319 41.8549 35.1799 41.8525Z" fill="#FF5C00"/>
<path d="M48.7234 28.7419C47.2428 31.1346 45.1761 33.0956 42.7255 34.4333C40.275 35.7709 37.5247 36.4392 34.7437 36.3728C31.9626 36.3064 29.2462 35.5076 26.8602 34.0545C24.4742 32.6015 22.5004 30.5439 21.132 28.0833C19.7636 25.6226 19.0474 22.8432 19.0536 20.0169C19.0597 17.1907 19.788 14.4145 21.1672 11.96C22.5463 9.50557 24.529 7.45693 26.9213 6.0146C29.3135 4.57227 32.0335 3.78568 34.8148 3.73179H34.847L32.8332 0.00537109L32.4465 0.0708441C29.2398 0.526155 26.1921 1.77391 23.5707 3.70467C20.9492 5.63543 18.8341 8.19021 17.4108 11.1449C15.9876 14.0997 15.2997 17.3641 15.4075 20.6518C15.5152 23.9395 16.4154 27.1502 18.029 30.0022C19.6426 32.8541 21.9203 35.2603 24.6624 37.0095C27.4045 38.7588 30.5272 39.7978 33.7566 40.0353C36.986 40.2728 40.2234 39.7017 43.1849 38.3719C46.1464 37.0421 48.7415 34.9944 50.7426 32.4083L48.7234 28.7419Z" fill="#FF5C00"/>
</svg>
